<?xml version="1.0" encoding="UTF-8"?>
<svg xmlns="http://www.w3.org/2000/svg" xmlns:xlink="http://www.w3.org/1999/xlink" width="60px" height="60px" viewBox="0 0 60 60" version="1.1">
<g id="surface1">
<path style=" stroke:none;fill-rule:evenodd;fill:rgb(0%,0%,0%);fill-opacity:1;" d="M 31.246094 0 C 34.875 0.136719 38.367188 0.953125 41.585938 2.265625 L 42.222656 3.898438 L 40.863281 6.847656 L 41.453125 8.527344 C 43.21875 9.476562 44.898438 10.613281 46.347656 11.972656 L 48.117188 11.972656 L 50.429688 9.660156 L 52.152344 9.660156 C 54.558594 12.246094 56.460938 15.285156 57.867188 18.59375 L 57.144531 20.179688 L 54.105469 21.316406 L 53.332031 22.902344 C 53.921875 24.761719 54.285156 26.757812 54.375 28.796875 L 55.644531 30.023438 L 58.910156 30.023438 L 60.136719 31.246094 C 60 34.875 59.183594 38.367188 57.867188 41.585938 L 56.234375 42.175781 L 53.289062 40.816406 L 51.609375 41.40625 C 50.65625 43.175781 49.523438 44.851562 48.164062 46.304688 L 48.207031 48.074219 L 50.523438 50.386719 L 50.523438 52.109375 C 47.9375 54.511719 44.898438 56.417969 41.585938 57.777344 L 40 57.050781 L 38.867188 54.011719 L 37.277344 53.242188 C 35.375 53.832031 33.425781 54.195312 31.382812 54.285156 L 30.160156 55.554688 L 30.160156 58.820312 L 28.933594 60.046875 C 25.304688 59.910156 21.8125 59.09375 18.59375 57.734375 L 18.003906 56.101562 L 19.363281 53.152344 L 18.777344 51.472656 C 17.007812 50.523438 15.328125 49.386719 13.878906 48.027344 L 12.109375 48.074219 L 9.796875 50.386719 L 8.074219 50.386719 C 5.667969 47.800781 3.765625 44.761719 2.402344 41.453125 L 3.128906 39.863281 L 6.167969 38.730469 L 6.9375 37.144531 C 6.347656 35.285156 5.988281 33.289062 5.894531 31.246094 L 4.625 30.023438 L 1.359375 30.023438 L 0.136719 28.796875 C 0.273438 25.171875 1.089844 21.679688 2.402344 18.457031 L 4.035156 17.867188 L 6.984375 19.230469 L 8.664062 18.640625 C 9.613281 16.871094 10.75 15.191406 12.109375 13.742188 L 12.109375 11.972656 L 9.796875 9.660156 L 9.796875 7.9375 C 12.382812 5.53125 15.417969 3.628906 18.730469 2.222656 L 20.316406 2.949219 L 21.453125 5.988281 L 23.039062 6.757812 C 24.941406 6.167969 26.894531 5.804688 28.933594 5.714844 L 30.160156 4.445312 L 30.160156 1.179688 L 31.382812 -0.046875 Z M 30.023438 12.835938 C 39.5 12.835938 47.210938 20.542969 47.210938 30.023438 C 47.210938 39.5 39.5 47.210938 30.023438 47.210938 C 20.542969 47.210938 12.835938 39.5 12.835938 30.023438 C 12.835938 20.542969 20.542969 12.835938 30.023438 12.835938 Z M 30.023438 12.835938 "/>
</g>
</svg>
