<?xml version="1.0" encoding="iso-8859-1"?>
<svg version="1.0" xmlns="http://www.w3.org/2000/svg"
 width="32px" height="32px" viewBox="0 0 512.000000 512.000000"
 preserveAspectRatio="xMidYMid meet">
<g transform="translate(0.000000,512.000000) scale(0.100000,-0.100000)"
fill="#000000" stroke="none">
<path d="M423 4820 c-85 -22 -130 -44 -202 -98 -67 -51 -124 -119 -162 -194
-63 -124 -59 -1 -59 -1968 0 -1988 -5 -1846 65 -1980 66 -125 193 -230 330
-273 l70 -22 2095 0 2095 0 70 22 c137 43 264 148 330 273 70 134 65 -8 65
1980 0 1988 5 1846 -65 1980 -65 122 -189 227 -324 273 l-66 22 -2085 2
c-2013 2 -2087 1 -2157 -17z m1679 -1437 c63 -29 123 -93 148 -159 17 -47 20
-78 20 -214 l0 -160 -210 0 -210 0 0 70 0 70 -285 0 -285 0 0 -430 0 -430 285
0 285 0 0 70 0 70 210 0 210 0 0 -160 c0 -136 -3 -167 -20 -214 -25 -66 -85
-130 -148 -159 -46 -22 -57 -22 -537 -22 -476 0 -491 1 -535 21 -68 31 -106
68 -139 136 l-31 61 0 626 c0 607 1 627 21 671 41 92 98 142 189 167 33 9 164
12 515 10 458 -2 471 -3 517 -24z m1988 1 c68 -31 106 -68 139 -136 31 -61 31
-62 31 -230 l0 -168 -210 0 -210 0 0 70 0 70 -285 0 -285 0 0 -430 0 -430 285
0 285 0 0 70 0 70 210 0 210 0 0 -168 c0 -168 0 -169 -31 -230 -33 -68 -71
-105 -139 -136 -44 -20 -59 -21 -535 -21 -480 0 -491 0 -537 22 -63 29 -123
93 -148 159 -19 53 -20 75 -20 663 0 522 2 615 15 652 34 94 102 160 193 185
36 10 159 13 517 11 454 -2 472 -3 515 -23z"/>
</g>
</svg>
